<?xml version="1.0" encoding="UTF-8" standalone="no"?>
<svg width="100" height="100" xmlns="http://www.w3.org/2000/svg">
  <g transform="translate(-65.273369,-107.32811)">
    <path
       style="fill:currentColor"
       d="m 149.32584,113.1471 v -5.81899 h 15.94843 v 15.94833 H 159.563 V 113.1471 Z m -20.58208,0 v -5.81899 h 14.33202 v 5.81899 z m -20.58209,0 v -5.81899 h 14.33203 v 5.81899 z m -20.582068,0 v -5.81899 h 14.224268 v 5.81899 z m -22.306233,10.12934 v -15.94833 h 15.948417 v 5.81899 H 71.092385 v 10.12934 z M 165.27427,143.85842 H 159.563 v -14.22419 h 5.71127 z m -94.181885,0 h -5.819016 v -14.22419 h 5.819016 z m 35.237385,10.23713 q 0,7.11211 -3.34055,11.53022 -3.340552,4.31036 -10.452679,4.31036 -7.112131,0 -10.452679,-4.31036 -3.340546,-4.41811 -3.340546,-11.53022 0,-7.21986 3.340546,-11.53023 3.340548,-4.31035 10.452679,-4.31035 7.112127,0 10.452679,4.31035 3.34055,4.31037 3.34055,11.53023 z m 32.97443,15.73282 q -2.58623,0 -4.20264,-0.5388 v -5.38794 q 0.86209,0.10775 1.61641,0.32326 0.86207,0.10777 1.93967,0.10777 1.93968,0 3.23279,-0.86207 1.29312,-0.96983 1.29312,-3.66381 v -21.12079 h 6.57332 v 20.90527 q 0,5.28021 -2.90951,7.75866 -2.90951,2.47845 -7.54316,2.47845 z m -19.5045,-31.14238 q 5.71127,0 8.62078,1.72417 3.01727,1.72413 3.01727,6.14225 0,2.58621 -1.29311,4.31038 -1.18536,1.72414 -3.44832,2.15517 v 0.43104 q 2.37072,0.43102 3.9871,1.93966 1.6164,1.50862 1.6164,5.17243 0,4.20261 -2.90951,6.57332 -2.80174,2.37068 -7.75868,2.37068 h -10.88372 v -30.8191 z m -34.37529,15.40956 q 0,4.84916 1.724152,7.65089 1.724153,2.69398 5.387979,2.69398 3.771588,0 5.387986,-2.69398 1.724141,-2.80173 1.724141,-7.65089 0,-4.84916 -1.724141,-7.54314 -1.616398,-2.80172 -5.387986,-2.80172 -3.663826,0 -5.387979,2.80172 -1.724152,2.69398 -1.724152,7.54314 z m 35.23739,-3.23276 q 2.47846,0 3.34055,-0.86209 0.96982,-0.86208 0.96982,-2.58621 0,-3.34053 -4.63366,-3.34053 h -3.12503 v 6.78883 z m -49.569415,13.68539 h -5.819016 v -14.33196 h 5.819016 z m 94.181885,0 H 159.563 v -14.33196 h 5.71127 z m -48.06079,-8.51296 v 8.08193 h 3.87935 q 2.58622,0 3.55607,-1.0776 0.96983,-1.18535 0.96983,-3.12501 0,-1.72415 -0.96983,-2.80172 -0.96985,-1.0776 -3.7716,-1.0776 z m -46.121095,29.09494 h -5.819016 v -14.2242 h 5.819016 z m 94.181885,0 H 159.563 v -14.2242 h 5.71127 z M 65.273369,207.32854 v -15.94835 h 5.819016 v 10.23713 h 10.129401 v 5.71122 z m 84.052471,0 v -5.71122 H 159.563 v -10.23713 h 5.71127 v 15.94835 z m -41.16417,0 v -5.71122 h 14.33203 v 5.71122 z m -20.582068,0 v -5.71122 h 14.224268 v 5.71122 z m 41.164158,0 v -5.71122 h 14.33202 v 5.71122 z"
       />
  </g>
</svg>
